<?xml version="1.0" standalone="no"?><!DOCTYPE svg PUBLIC "-//W3C//DTD SVG 1.1//EN" "http://www.w3.org/Graphics/SVG/1.1/DTD/svg11.dtd"><svg t="1659337565080" class="icon" viewBox="0 0 1024 1024" version="1.1" xmlns="http://www.w3.org/2000/svg" p-id="1864" xmlns:xlink="http://www.w3.org/1999/xlink" width="200" height="200"><defs><style type="text/css"></style></defs><path d="M614.5 307.2c-2-20.6-5.7-41-11.1-61-5.2-19.1-11.4-39-24.2-54.6-13-15.8-33.5-24.5-53.3-27.6-20.8-3.3-42.1-1-61.6 7.1-17.3 7.3-32.7 18.9-44.4 33.7-12.7 16.1-20 34.7-24 54.6-4.3 21.1-6.2 42.4-12 63.2-6.1 21.5-14 42.4-16.9 64.7-5.5 42 5.3 84.7 23.5 122.5 18.6 38.8 45.6 72.8 73.5 105.3l15.9 18.3c8.5 15.8 17.3 31.4 26.2 46.9 2.5 4.2 5 8.5 9.1 11.4 4 2.8 9.2 3.6 13.8 2.1 9.7-3.1 15.3-12.5 20-20.8 10.7-18.7 24-39.2 22.6-61.7-0.7-11.5-3.8-22.7-5.9-34-2.1-10.9-3.5-21.9-2.9-32.9 1.2-21.3 13.4-39.2 22.1-58 8.6-18.5 15.5-37.8 20.5-57.5 10.1-39.6 13.1-81.1 9.1-121.7z" fill="#70C256" p-id="1865"></path><path d="M574.1 411.2c-15.5 14.6-31.1 29.4-44.3 46.2-5.7 7.2-10.9 14.7-15.5 22.6-1.4-15-2.5-30-3.1-45.1-1-21.9-0.9-43.8 0.1-65.6 0.1-0.1 0.1-0.2 0.2-0.3 7-14.1 17.3-25.8 27.5-37.6 11.4-13 22.8-26.1 34.2-39.1 2.5-2.9 2.9-7.2 0-10.1-2.6-2.6-7.6-2.9-10.1 0-11.7 13.4-23.4 26.7-35.1 40.1-5 5.7-10 11.5-14.7 17.5 0.3-3.4 0.6-6.8 1-10.2 2.1-19.6 4.7-39.2 7.5-58.7 0.4-2.6 0.8-5.3 1.2-8 1.5-1.6 2.4-3.7 2.5-6 0.2-4.5 0.2-9.1 0-13.6 0.7-10.2 0-20.2-4.4-29.8-1.8-4-7.4-5.2-11-3.6-4.2 1.8-6 6-5.1 10.4 1.6 7.5 2.5 15.1 2.9 22.8v0.1c-0.7 8.1-2.1 16.2-3.2 24.3l-3 22.2c-1.7-3.7-3.6-7.4-5.6-10.8-9.3-15.5-22-28.6-34.6-41.4-6.5-6.5-16.6 3.6-10.1 10.1 11.8 11.9 23.7 24 32.4 38.5 4.1 6.9 7.3 14.1 9.2 21.9 1.9 7.9 1.8 16.1 3.7 23.9-3.1 31.3-4.4 62.6-3.4 94v0.8c-5-8.8-10.9-17.2-17.5-24.9-6.7-7.9-14.3-15-21.6-22.3-8-8-15.6-16.4-21-26.4-4.3-8.1-16.7-0.9-12.3 7.2 9.6 17.9 25.5 30.9 39.2 45.4 13.6 14.4 24.2 31.5 30.9 50.2 2.1 6.1 3.9 12.3 5.3 18.6 2.8 32 6.9 64 11.1 95.9-19-26.9-39.5-52.8-61.5-77.3-2.6-2.9-7.5-2.6-10.1 0-2.9 2.9-2.6 7.2 0 10.1 27.4 30.6 52.4 63.2 75 97.5 0.2 0.3 0.5 0.6 0.7 0.9 1.4 10.5 2.7 21 4 31.6 4.7 38.6 8.3 240.7 8.8 279.6 0.2 11.4 17.8 11.4 17.7 0-0.4-26.7-2.2-216.5-4.8-243 1.3-1.7 1.8-4.1 1.3-6.3-4.3-20.8 9.1-40.1 20-56.5 2.1-3.2 0.6-7.9-2.6-9.8-3.5-2.1-7.6-0.7-9.8 2.6-5.1 7.6-10.2 15.6-14.2 23.9-3.5-27.9-7.4-55.8-10.9-83.6-1-7.7-1.9-15.5-2.8-23.2 0.1-0.8 0-1.6-0.1-2.4-1.5-9.3 3.8-18.8 8.2-26.5 4.8-8.4 10.4-16.4 16.6-23.9 12.6-15.3 27-29 41.4-42.6 6.6-6.5-3.5-16.6-10.2-10.3z" fill="#9FD827" p-id="1866"></path><path d="M896.9 412.1c7.6-19.2 13.6-39.1 17.8-59.3 4.1-19.4 7.6-39.9 3.3-59.6-4.3-20-18.7-37-34.9-48.8-17-12.3-37.1-20.1-58.1-21.7-18.7-1.4-37.8 2-54.8 9.8-18.6 8.6-33.6 21.8-46.3 37.7-13.4 16.8-24.8 35-39.5 50.8-15.2 16.4-31.8 31.4-44.5 50-24 34.9-33.8 77.9-34.9 119.8-1.1 43 7.5 85.6 17.5 127.2 1.9 7.9 3.8 15.7 5.8 23.5 0.4 17.9 1.1 35.8 2 53.7 0.3 4.9 0.5 9.8 2.9 14.3 2.3 4.3 6.6 7.4 11.3 8.2 10.1 1.7 19.3-4.2 27.3-9.4 18.1-11.8 39.2-24 48.2-44.6 4.6-10.6 7-22 10.2-33 3.1-10.6 6.8-21.1 12.4-30.7 10.8-18.4 29.8-28.8 46.1-41.6 16.1-12.6 31-26.6 44.5-41.9 27.2-30.7 48.7-66.3 63.7-104.4z" fill="#70C256" p-id="1867"></path><path d="M813.6 486.3c-20.5 6-41.1 12-60.5 21-8.3 3.8-16.4 8.1-24.1 13 5.6-14 11.5-27.9 17.7-41.6 9.1-20 19.1-39.4 30-58.4 0.1-0.1 0.2-0.1 0.3-0.2 12.6-9.3 27.1-15.1 41.6-20.9l48.3-19.2c3.6-1.4 5.8-5.2 4.6-9-1.1-3.5-5.4-6-9-4.6-16.5 6.6-33 13.2-49.5 19.7-7 2.8-14.1 5.7-21 8.9 1.8-2.9 3.7-5.8 5.6-8.7 10.8-16.5 22.1-32.7 33.4-48.9 1.5-2.2 3.1-4.4 4.7-6.6 2-0.8 3.8-2.2 4.9-4.2 2.2-4 4.3-8 6.2-12.1 5.2-8.7 9.2-18 9.7-28.5 0.2-4.3-4.2-8-8.2-8.3-4.6-0.3-8.1 2.6-9.3 7-2 7.4-4.7 14.6-7.8 21.6 0 0 0 0.1-0.1 0.1-4.3 6.9-9.2 13.5-13.9 20.2-4.3 6.1-8.6 12.2-12.8 18.4 0.2-4.1 0.2-8.2-0.1-12.2-1.2-18-6.5-35.5-12-52.6-2.8-8.8-16.4-4.4-13.6 4.4 5.1 16 10.2 32.2 11.3 49 0.5 8 0.1 15.9-1.8 23.7-1.9 7.9-5.7 15.1-7.6 23-17 26.4-32.4 53.7-45.8 82.2-0.1 0.2-0.2 0.5-0.3 0.7-0.4-10.1-1.9-20.3-4.2-30.1-2.4-10.1-5.9-19.8-9.1-29.7-3.5-10.8-6.4-21.7-6.6-33.1-0.2-9.2-14.4-8.4-14.3 0.8 0.4 20.3 8.6 39.1 14.3 58.3 5.6 19 7.2 39.1 4.6 58.7-0.8 6.4-2.1 12.7-3.8 18.9-12.1 29.8-23 60.1-33.8 90.4-4.6-32.6-11.2-65-19.5-96.8-1-3.7-5.5-5.7-9-4.6-3.8 1.2-5.6 5.3-4.6 9 10.4 39.7 17.9 80.1 22.4 121 0 0.4 0.1 0.8 0.2 1.2-3.6 10-7.2 20-10.8 29.9-13.4 36.5-102.2 218.1-119.4 253-5 10.2 10.7 18.3 15.8 8.1 11.8-23.9 96.6-193.7 106.4-218.5 2-0.9 3.5-2.8 4.1-5 5.7-20.5 26.3-31.6 43.5-41.2 3.4-1.9 4.2-6.8 2.2-9.9-2.2-3.4-6.5-4.1-9.9-2.2-8 4.5-16.2 9.2-23.5 14.8 9.6-26.4 18.8-53 28.4-79.4 2.6-7.3 5.3-14.6 8-21.9 0.4-0.7 0.7-1.4 1-2.2 2.9-8.9 12-15 19.4-19.9 8.1-5.3 16.7-9.9 25.6-13.7 18.2-7.9 37.2-13.5 56.2-19.1 8.7-2.6 4.3-16.2-4.5-13.7z" fill="#9FD827" p-id="1868"></path><path d="M285.2 351.3c-12.3-16.6-25.9-32.3-40.8-46.6-14.3-13.7-29.8-27.6-48.8-34.4-19.2-6.9-41.3-3.8-59.9 3.7-19.5 7.9-36.7 20.8-49.2 37.7-11.1 15.1-18.4 33-20.8 51.7-2.6 20.3 0.7 40 7.4 59.2 7.2 20.3 16.5 39.6 22.1 60.4 5.8 21.6 9.8 43.6 18.7 64.2 16.9 38.9 48.1 70 83 93.1C232.8 664 273.4 679.4 314 693c7.7 2.6 15.3 5.1 23 7.5 15.4 9.2 30.9 18.1 46.6 26.8 4.3 2.4 8.6 4.8 13.6 5.1 4.8 0.3 9.7-1.7 12.9-5.3 6.8-7.6 6.7-18.6 6.5-28.1-0.4-21.6 0.4-46-12.2-64.5-6.5-9.5-14.9-17.6-22.6-26.1-7.3-8.3-14.3-17-19.4-26.8-9.9-18.9-8.6-40.5-10.8-61.1-2.1-20.3-6.1-40.4-11.9-59.9-11.4-39.3-30.2-76.4-54.5-109.3z" fill="#70C256" p-id="1869"></path><path d="M303.9 461.3c-5.8 20.5-11.6 41.2-14.3 62.4-1.2 9.1-1.9 18.2-1.7 27.3-8.9-12.2-17.5-24.5-25.8-37.1-12.1-18.3-23.3-37.1-33.6-56.4v-0.4c-1.2-15.7 1.6-31 4.4-46.4 3.1-17 6.2-34.1 9.3-51.1 0.7-3.8-1.3-7.7-5.2-8.7-3.6-0.9-8 1.4-8.7 5.2-3.2 17.5-6.4 35-9.5 52.4-1.4 7.5-2.7 15-3.6 22.5-1.5-3.1-3-6.2-4.4-9.3-8.3-17.9-16-36.1-23.8-54.2-1-2.5-2.1-5-3.1-7.5 0.4-2.1 0.1-4.4-1-6.4-2.2-4-4.5-7.9-7-11.7-4.6-9.1-10.4-17.3-19-23.3-3.6-2.5-9-0.7-11.3 2.6-2.6 3.7-2.1 8.3 1 11.6 5.2 5.7 9.9 11.7 14.1 18.1 0 0 0 0.1 0.1 0.1 3.6 7.3 6.6 15 9.8 22.5 2.9 6.9 5.8 13.7 8.8 20.6-3.3-2.3-6.8-4.5-10.4-6.4-15.9-8.5-33.6-13.3-50.9-17.7-8.9-2.3-12.4 11.6-3.5 13.9 16.2 4.2 32.7 8.4 47.5 16.4 7.1 3.8 13.6 8.4 19.2 14.1 5.6 5.8 9.8 12.8 15.4 18.6 13.3 28.4 28.3 56 45.4 82.4 0.1 0.2 0.3 0.5 0.4 0.7-8.8-5-18.1-9.2-27.8-12.4-9.8-3.3-20-5.5-30-8-11-2.8-21.8-6.1-31.5-11.9-7.9-4.7-14.8 7.8-6.9 12.5 17.4 10.5 37.7 13.4 57 18.8 19 5.4 37 14.6 52.2 27.2 5 4.1 9.6 8.5 14 13.2 18.8 26.1 38.7 51.4 58.7 76.6-30.1-13.4-61-25-92.4-34.8-3.7-1.1-7.8 1.6-8.7 5.2-1 3.9 1.5 7.5 5.2 8.7 39.2 12.2 77.4 27.3 114.4 45.2 0.4 0.2 0.7 0.3 1.1 0.4 6.6 8.3 13.1 16.7 19.6 25 23.8 30.8 130.7 202.3 151.1 235.4 6 9.7 21.2 0.6 15.2-9.1-14-22.7-113-184.7-128.8-206.1 0.2-2.2-0.5-4.4-2.1-6.1-14.3-15.7-12.8-39.1-11.8-58.8 0.2-3.9-3.5-7.1-7.2-7.1-4.1 0-6.9 3.4-7.1 7.2-0.5 9.2-0.7 18.6 0.1 27.8-17.3-22.2-35-44.1-52.3-66.2-4.8-6.1-9.6-12.3-14.3-18.5-0.3-0.7-0.8-1.4-1.3-2-6.1-7.2-6.4-18.1-6.5-27-0.2-9.7 0.5-19.4 1.9-29 2.9-19.6 8.3-38.7 13.7-57.8 2.3-8.5-11.6-12-14.1-3.2z" fill="#9FD827" p-id="1870"></path></svg>